<mxfile host="app.diagrams.net" modified="2020-12-18T17:46:50.340Z" agent="5.0 (Windows NT 10.0; WOW64) AppleWebKit/537.36 (KHTML, like Gecko) Chrome/87.0.4280.88 Safari/537.36" etag="1GlYT5Tk96NBxJw-5_If" version="14.0.5" type="github">
  <diagram id="iewCaECNP4vwXsnecTzZ" name="Page-1">
    <mxGraphModel dx="1019" dy="456" grid="1" gridSize="10" guides="1" tooltips="1" connect="1" arrows="1" fold="1" page="1" pageScale="1" pageWidth="827" pageHeight="1169" math="0" shadow="0">
      <root>
        <mxCell id="0" />
        <mxCell id="1" parent="0" />
        <mxCell id="CpIPXmpN0bfmsFaB-DF9-25" style="edgeStyle=orthogonalEdgeStyle;rounded=0;orthogonalLoop=1;jettySize=auto;html=1;exitX=0.5;exitY=1;exitDx=0;exitDy=0;" edge="1" parent="1" source="CpIPXmpN0bfmsFaB-DF9-1">
          <mxGeometry relative="1" as="geometry">
            <mxPoint x="205" y="140" as="targetPoint" />
          </mxGeometry>
        </mxCell>
        <mxCell id="CpIPXmpN0bfmsFaB-DF9-1" value="" style="ellipse;html=1;shape=startState;fillColor=#000000;strokeColor=#ff0000;" vertex="1" parent="1">
          <mxGeometry x="190" y="30" width="30" height="30" as="geometry" />
        </mxCell>
        <mxCell id="CpIPXmpN0bfmsFaB-DF9-3" value="" style="ellipse;html=1;shape=endState;fillColor=#000000;strokeColor=#ff0000;" vertex="1" parent="1">
          <mxGeometry x="394" y="530" width="30" height="30" as="geometry" />
        </mxCell>
        <mxCell id="CpIPXmpN0bfmsFaB-DF9-5" value="" style="rhombus;whiteSpace=wrap;html=1;" vertex="1" parent="1">
          <mxGeometry x="335" y="110" width="150" height="150" as="geometry" />
        </mxCell>
        <mxCell id="CpIPXmpN0bfmsFaB-DF9-28" style="edgeStyle=orthogonalEdgeStyle;rounded=0;orthogonalLoop=1;jettySize=auto;html=1;entryX=1;entryY=0.5;entryDx=0;entryDy=0;" edge="1" parent="1" source="CpIPXmpN0bfmsFaB-DF9-6" target="CpIPXmpN0bfmsFaB-DF9-3">
          <mxGeometry relative="1" as="geometry">
            <mxPoint x="660" y="570" as="targetPoint" />
            <Array as="points">
              <mxPoint x="680" y="545" />
            </Array>
          </mxGeometry>
        </mxCell>
        <mxCell id="CpIPXmpN0bfmsFaB-DF9-6" value="" style="rounded=1;whiteSpace=wrap;html=1;" vertex="1" parent="1">
          <mxGeometry x="620" y="155" width="120" height="60" as="geometry" />
        </mxCell>
        <mxCell id="CpIPXmpN0bfmsFaB-DF9-8" value="" style="rounded=1;whiteSpace=wrap;html=1;" vertex="1" parent="1">
          <mxGeometry x="350" y="350" width="120" height="60" as="geometry" />
        </mxCell>
        <mxCell id="CpIPXmpN0bfmsFaB-DF9-14" value="" style="endArrow=classic;html=1;exitX=0.5;exitY=1;exitDx=0;exitDy=0;entryX=0.5;entryY=0;entryDx=0;entryDy=0;" edge="1" parent="1" source="CpIPXmpN0bfmsFaB-DF9-5" target="CpIPXmpN0bfmsFaB-DF9-8">
          <mxGeometry width="50" height="50" relative="1" as="geometry">
            <mxPoint x="390" y="270" as="sourcePoint" />
            <mxPoint x="205" y="340" as="targetPoint" />
          </mxGeometry>
        </mxCell>
        <mxCell id="CpIPXmpN0bfmsFaB-DF9-16" value="return part refund" style="text;html=1;strokeColor=none;fillColor=none;align=center;verticalAlign=middle;whiteSpace=wrap;rounded=0;" vertex="1" parent="1">
          <mxGeometry x="620" y="175" width="110" height="20" as="geometry" />
        </mxCell>
        <mxCell id="CpIPXmpN0bfmsFaB-DF9-17" value="" style="endArrow=classic;html=1;entryX=0;entryY=0.5;entryDx=0;entryDy=0;exitX=1;exitY=0.5;exitDx=0;exitDy=0;" edge="1" parent="1" source="CpIPXmpN0bfmsFaB-DF9-5" target="CpIPXmpN0bfmsFaB-DF9-6">
          <mxGeometry width="50" height="50" relative="1" as="geometry">
            <mxPoint x="420" y="430" as="sourcePoint" />
            <mxPoint x="440" y="340" as="targetPoint" />
          </mxGeometry>
        </mxCell>
        <mxCell id="CpIPXmpN0bfmsFaB-DF9-19" value="return Full Refund" style="text;html=1;strokeColor=none;fillColor=none;align=center;verticalAlign=middle;whiteSpace=wrap;rounded=0;" vertex="1" parent="1">
          <mxGeometry x="359" y="370" width="110" height="20" as="geometry" />
        </mxCell>
        <mxCell id="CpIPXmpN0bfmsFaB-DF9-21" value="" style="rounded=1;whiteSpace=wrap;html=1;" vertex="1" parent="1">
          <mxGeometry x="150" y="150" width="120" height="60" as="geometry" />
        </mxCell>
        <mxCell id="CpIPXmpN0bfmsFaB-DF9-22" value="Check time to cancle" style="text;html=1;strokeColor=none;fillColor=none;align=center;verticalAlign=middle;whiteSpace=wrap;rounded=0;" vertex="1" parent="1">
          <mxGeometry x="354" y="170" width="110" height="40" as="geometry" />
        </mxCell>
        <mxCell id="CpIPXmpN0bfmsFaB-DF9-26" style="edgeStyle=orthogonalEdgeStyle;rounded=0;orthogonalLoop=1;jettySize=auto;html=1;exitX=1;exitY=0.5;exitDx=0;exitDy=0;entryX=0;entryY=0.5;entryDx=0;entryDy=0;" edge="1" parent="1" source="CpIPXmpN0bfmsFaB-DF9-23" target="CpIPXmpN0bfmsFaB-DF9-5">
          <mxGeometry relative="1" as="geometry">
            <Array as="points">
              <mxPoint x="310" y="180" />
              <mxPoint x="310" y="185" />
            </Array>
          </mxGeometry>
        </mxCell>
        <mxCell id="CpIPXmpN0bfmsFaB-DF9-23" value="Cancel Book" style="text;html=1;strokeColor=none;fillColor=none;align=center;verticalAlign=middle;whiteSpace=wrap;rounded=0;" vertex="1" parent="1">
          <mxGeometry x="160" y="170" width="110" height="20" as="geometry" />
        </mxCell>
        <mxCell id="CpIPXmpN0bfmsFaB-DF9-27" value="" style="endArrow=classic;html=1;entryX=0.5;entryY=0;entryDx=0;entryDy=0;exitX=0.5;exitY=1;exitDx=0;exitDy=0;" edge="1" parent="1" source="CpIPXmpN0bfmsFaB-DF9-8" target="CpIPXmpN0bfmsFaB-DF9-3">
          <mxGeometry width="50" height="50" relative="1" as="geometry">
            <mxPoint x="414" y="460" as="sourcePoint" />
            <mxPoint x="549" y="460" as="targetPoint" />
          </mxGeometry>
        </mxCell>
        <mxCell id="CpIPXmpN0bfmsFaB-DF9-29" value="less&amp;nbsp;&lt;span style=&quot;color: rgba(0 , 0 , 0 , 0) ; font-family: monospace ; font-size: 0px&quot;&gt;%3CmxGraphModel%3E%3Croot%3E%3CmxCell%20id%3D%220%22%2F%3E%3CmxCell%20id%3D%221%22%20parent%3D%220%22%2F%3E%3CmxCell%20id%3D%222%22%20value%3D%22Check%20time%20to%20cancle%22%20style%3D%22text%3Bhtml%3D1%3BstrokeColor%3Dnone%3BfillColor%3Dnone%3Balign%3Dcenter%3BverticalAlign%3Dmiddle%3BwhiteSpace%3Dwrap%3Brounded%3D0%3B%22%20vertex%3D%221%22%20parent%3D%221%22%3E%3CmxGeometry%20x%3D%22354%22%20y%3D%22170%22%20width%3D%22110%22%20height%3D%2240%22%20as%3D%22geometry%22%2F%3E%3C%2FmxCell%3E%3C%2Froot%3E%3C%2FmxGraphModel%3E&lt;/span&gt;&lt;br&gt;than 24h" style="text;html=1;strokeColor=none;fillColor=none;align=center;verticalAlign=middle;whiteSpace=wrap;rounded=0;" vertex="1" parent="1">
          <mxGeometry x="284" y="290" width="110" height="40" as="geometry" />
        </mxCell>
        <mxCell id="CpIPXmpN0bfmsFaB-DF9-30" value="more than 24h" style="text;html=1;strokeColor=none;fillColor=none;align=center;verticalAlign=middle;whiteSpace=wrap;rounded=0;" vertex="1" parent="1">
          <mxGeometry x="510" y="140" width="110" height="40" as="geometry" />
        </mxCell>
      </root>
    </mxGraphModel>
  </diagram>
</mxfile>
